<?xml version="1.0" standalone="no"?>
<!DOCTYPE svg PUBLIC "-//W3C//DTD SVG 20010904//EN"
 "http://www.w3.org/TR/2001/REC-SVG-20010904/DTD/svg10.dtd">
<svg version="1.0" xmlns="http://www.w3.org/2000/svg"
 width="400.000000pt" height="300.000000pt" viewBox="0 0 400.000000 300.000000"
 preserveAspectRatio="xMidYMid meet">

<g transform="translate(0.000000,300.000000) scale(0.100000,-0.100000)"
fill="#000000" stroke="none">
<path d="M1203 2324 c-9 -24 4 -124 26 -185 19 -56 19 -57 0 -85 -10 -16 -24
-45 -30 -64 -6 -19 -33 -81 -60 -137 -58 -120 -95 -249 -78 -270 6 -7 23 -13
38 -13 26 0 26 0 23 -71 -5 -90 2 -117 33 -131 l25 -11 0 -336 c0 -288 2 -340
16 -359 l15 -22 509 0 c449 0 510 2 524 16 14 13 16 60 16 357 l1 342 32 20
32 20 30 -40 c21 -27 56 -53 110 -80 l80 -41 6 -100 c6 -124 34 -189 91 -217
34 -16 39 -17 66 -3 33 17 42 34 42 79 0 29 3 27 29 -29 46 -98 112 -131 159
-81 28 29 28 47 -2 133 -47 138 -65 244 -75 436 -6 102 -18 221 -26 263 -43
206 -128 321 -301 407 -80 39 -90 42 -192 46 -99 4 -119 1 -282 -38 -215 -52
-237 -51 -294 16 -40 47 -102 83 -142 84 -12 0 -55 16 -95 35 -134 63 -312 96
-326 59z m185 -44 c23 -6 64 -20 90 -31 l47 -21 -52 -14 c-29 -7 -71 -23 -92
-34 l-39 -19 -24 32 c-27 36 -68 102 -68 109 0 6 83 -7 138 -22z m-97 -115
c36 -51 44 -53 91 -26 52 30 208 69 208 52 0 -5 -19 -11 -42 -14 -23 -3 -79
-24 -124 -46 -45 -23 -87 -41 -92 -41 -6 0 -19 13 -28 30 -13 21 -21 26 -27
17 -6 -8 -7 -6 -3 6 3 10 -1 29 -10 43 -28 42 -7 26 27 -21z m342 18 c-7 -2
-19 -2 -25 0 -7 3 -2 5 12 5 14 0 19 -2 13 -5z m96 -48 c52 -56 78 -115 92
-208 6 -40 17 -86 25 -104 8 -17 14 -44 14 -60 0 -28 20 -110 35 -145 7 -17
-9 -18 -249 -18 -249 0 -256 1 -275 22 -12 12 -24 37 -27 55 -4 19 -14 39 -23
45 -16 10 -16 13 -2 44 9 21 26 37 44 43 36 13 31 32 -11 43 -35 9 -72 51 -72
82 0 33 37 85 65 92 14 3 36 3 50 0 22 -6 25 -3 26 21 1 20 3 22 6 8 2 -11 6
-30 9 -42 8 -40 34 -28 34 16 0 52 37 81 104 81 36 0 52 6 71 25 14 13 25 29
25 35 0 20 18 9 59 -35z m601 -4 c0 -27 -15 -41 -41 -41 -21 0 -29 5 -29 18 0
10 3 22 7 25 10 10 63 8 63 -2z m-224 -54 c-4 -16 -15 -26 -31 -29 -21 -4 -25
-1 -25 18 0 15 8 25 28 32 33 11 36 9 28 -21z m510 -61 c40 -47 71 -108 79
-156 l6 -35 -15 38 c-31 82 -86 141 -173 185 -33 17 -40 26 -36 42 5 19 7 19
55 -7 28 -15 65 -45 84 -67z m-723 25 c6 -24 0 -31 -28 -31 -14 0 -26 9 -33
25 -11 24 -10 25 22 25 25 0 35 -5 39 -19z m-26 -113 c-3 -7 -5 -2 -5 12 0 14
2 19 5 13 2 -7 2 -19 0 -25z m887 -70 c21 -48 45 -142 61 -240 4 -29 3 -38 -8
-38 -10 0 -17 16 -21 48 -7 48 -29 150 -51 235 -7 26 -11 47 -8 47 2 0 15 -24
27 -52z m-877 -10 c-3 -7 -5 -2 -5 12 0 14 2 19 5 13 2 -7 2 -19 0 -25z m-694
-13 c-3 -9 -8 -14 -10 -11 -3 3 -2 9 2 15 9 16 15 13 8 -4z m147 12 c0 -2 -10
-12 -22 -23 l-23 -19 19 23 c18 21 26 27 26 19z m1377 -144 c-2 -21 -4 -6 -4
32 0 39 2 55 4 38 2 -18 2 -50 0 -70z m-564 70 c-40 -2 -106 -2 -145 0 -40 1
-8 3 72 3 80 0 112 -2 73 -3z m219 -14 c12 -6 48 -31 81 -55 59 -44 120 -67
210 -79 44 -6 48 -9 43 -28 -26 -97 -28 -146 -7 -228 17 -68 21 -113 21 -251
0 -184 -3 -193 -56 -169 -41 18 -64 83 -64 181 0 47 -6 96 -13 110 -8 16 -40
38 -88 62 -104 49 -147 108 -163 221 -6 36 -4 51 8 63 9 8 16 32 16 52 0 29
-8 43 -45 78 -38 35 -43 43 -28 47 33 9 64 7 85 -4z m-1130 -89 l27 -60 -75 0
c-57 0 -73 3 -68 13 18 31 76 107 82 107 4 -1 19 -28 34 -60z m1035 34 c42
-31 60 -68 44 -88 -20 -24 -332 -24 -355 0 -16 16 -22 94 -9 108 4 4 72 6 150
4 125 -3 145 -5 170 -24z m490 -56 c-3 -7 -5 -2 -5 12 0 14 2 19 5 13 2 -7 2
-19 0 -25z m-820 -34 c-3 -3 -12 -4 -19 -1 -8 3 -5 6 6 6 11 1 17 -2 13 -5z
m343 -134 l0 -80 -560 0 -560 0 0 73 c0 41 3 77 7 80 3 4 255 7 560 7 l553 0
0 -80z m543 -27 c5 -25 3 -33 -8 -33 -15 0 -22 50 -8 63 8 9 9 8 16 -30z
m-608 -770 c-3 -10 -108 -13 -484 -13 -264 0 -486 3 -495 6 -14 5 -16 43 -16
325 l0 319 383 0 c428 0 452 -3 524 -65 22 -19 50 -54 62 -77 l21 -43 2 115
c2 63 4 -36 5 -220 2 -184 1 -341 -2 -347z"/>
<path d="M1545 1946 c5 -29 3 -46 -5 -51 -19 -12 -57 3 -63 25 -8 30 -26 24
-42 -12 -15 -38 -11 -51 15 -43 27 8 60 -12 60 -36 0 -20 -21 -33 -71 -43 -30
-6 -77 -41 -68 -50 3 -3 29 4 57 16 53 22 81 21 155 -7 33 -13 17 16 -18 31
-31 12 -33 17 -25 38 5 13 6 27 2 30 -3 4 4 13 15 21 30 21 39 70 19 100 -26
39 -38 31 -31 -19z"/>
<path d="M1605 1540 c434 -5 441 -5 487 -28 25 -13 66 -41 91 -62 25 -22 55
-40 66 -40 19 0 21 6 21 70 l0 70 -552 -2 -553 -2 440 -6z"/>
<path d="M1534 1265 c-16 -24 -16 -28 0 -63 l17 -37 167 0 c167 0 167 0 184
25 23 32 23 63 0 83 -16 14 -44 17 -185 17 l-167 0 -16 -25z"/>
</g>
</svg>
